<svg height="480pt" viewBox="0 0 480 480" width="480pt" xmlns="http://www.w3.org/2000/svg"><path d="m115.632812 115.664062c-3.242187 3.246094-6.402343 6.648438-9.394531 10.160157l-23.4375-13.535157c-1.839843-1.0625-4.023437-1.351562-6.074219-.804687-2.054687.550781-3.800781 1.890625-4.863281 3.730469l-24 41.601562c-2.207031 3.828125-.890625 8.722656 2.9375 10.925782l23.398438 13.515624c-3.066407 8.710938-5.4375 17.652344-7.085938 26.742188h-27.113281c-4.417969 0-8 3.582031-8 8v48c0 4.417969 3.582031 8 8 8h27.113281c1.648438 9.097656 4.015625 18.054688 7.085938 26.777344l-23.398438 13.511718c-3.820312 2.203126-5.132812 7.085938-2.9375 10.910157l24 41.601562c1.0625 1.839844 2.808594 3.179688 4.863281 3.730469 2.050782.550781 4.234376.261719 6.074219-.804688l23.4375-13.535156c6.011719 7.027344 12.558594 13.578125 19.585938 19.585938l-13.535157 23.4375c-1.0625 1.839844-1.351562 4.023437-.804687 6.074218.550781 2.054688 1.890625 3.800782 3.730469 4.863282l41.601562 24c1.839844 1.050781 4.019532 1.339844 6.070313.800781 2.050781-.550781 3.796875-1.890625 4.855469-3.730469l13.515624-23.398437c8.714844 3.054687 17.65625 5.414062 26.742188 7.0625v27.113281c0 4.417969 3.582031 8 8 8h48c4.417969 0 8-3.582031 8-8v-27.113281c9.097656-1.652344 18.050781-4.023438 26.777344-7.085938l13.511718 23.398438c1.058594 1.839843 2.804688 3.179687 4.855469 3.730469 2.050781.535156 4.230469.25 6.070313-.800782l41.601562-24c1.839844-1.0625 3.179688-2.8125 3.730469-4.863281s.261719-4.234375-.804687-6.074219l-13.535157-23.4375c3.511719-2.992187 6.921875-6.152344 10.175781-9.410156 3.242188-3.246094 6.402344-6.648438 9.394532-10.160156l23.4375 13.535156c1.839844 1.066406 4.023437 1.351562 6.074218.804688 2.054688-.550782 3.800782-1.890626 4.863282-3.730469l24-41.601563c2.207031-3.828125.894531-8.722656-2.9375-10.925781l-23.398438-13.511719c3.0625-8.71875 5.425782-17.664062 7.070313-26.753906h27.113281c4.417969 0 8-3.582031 8-8v-48c0-4.417969-3.582031-8-8-8h-27.113281c-1.648438-9.097656-4.015625-18.054688-7.085938-26.777344l23.398438-13.511718c3.828125-2.207032 5.144531-7.097657 2.9375-10.925782l-11.878907-20.585937-12.128906-21c-2.210937-3.824219-7.101562-5.136719-10.929687-2.925781l-23.4375 13.535156c-6.011719-7.027344-12.558594-13.578125-19.585938-19.585938l13.535157-23.4375c1.0625-1.839844 1.351562-4.023437.804687-6.074218-.550781-2.054688-1.890625-3.800782-3.730469-4.863282l-41.601562-24c-3.828125-2.207031-8.722656-.894531-10.925782 2.9375l-13.515624 23.398438c-8.714844-3.054688-17.65625-5.421875-26.742188-7.070313v-27.113281c0-4.417969-3.582031-8-8-8h-48c-4.417969 0-8 3.582031-8 8v27.113281c-9.097656 1.652344-18.050781 4.023438-26.777344 7.085938l-13.511718-23.398438c-2.203126-3.820312-7.085938-5.132812-10.910157-2.9375l-41.601562 24c-1.839844 1.0625-3.179688 2.808594-3.730469 4.863281-.550781 2.050782-.261719 4.234376.804688 6.074219l13.535156 23.4375c-3.511719 2.992188-6.921875 6.152344-10.175782 9.410157zm206.511719 298.609376-12.90625-22.351563c-1.988281-3.449219-6.207031-4.90625-9.902343-3.425781-11.726563 4.667968-23.972657 7.914062-36.472657 9.671875-3.941406.566406-6.867187 3.945312-6.863281 7.929687v25.902344h-32v-25.902344c.003906-3.984375-2.921875-7.363281-6.863281-7.929687-12.5-1.757813-24.746094-5.003907-36.472657-9.671875-3.695312-1.480469-7.914062-.023438-9.902343 3.425781l-12.90625 22.351563-27.710938-16 12.925781-22.402344c1.988282-3.441406 1.144532-7.820313-1.972656-10.277344-9.917968-7.816406-18.878906-16.773438-26.699218-26.691406-2.457032-3.117188-6.835938-3.960938-10.277344-1.972656l-22.402344 12.917968-16-27.695312 22.34375-12.914063c3.441406-1.988281 4.902344-6.203125 3.425781-9.894531-4.65625-11.734375-7.898437-23.980469-9.664062-36.480469-.566407-3.9375-3.941407-6.863281-7.921875-6.863281h-25.902344v-32h25.910156c3.980469 0 7.355469-2.925781 7.921875-6.863281 1.765625-12.5 5.007813-24.746094 9.664063-36.480469 1.476562-3.691406.015625-7.90625-3.425782-9.894531l-22.34375-12.914063 16-27.695312 22.402344 12.917968c3.441406 1.96875 7.804688 1.132813 10.277344-1.964843 2.257812-2.859375 4.609375-5.640625 7.058594-8.34375l45.238281 45.246093c-32.277344 38.113282-29.9375 94.605469 5.375 129.921876 35.3125 35.316406 91.808594 37.65625 129.921875 5.382812l45.238281 45.238281c-2.703125 2.453125-5.480469 4.800781-8.335937 7.042969-3.121094 2.460938-3.964844 6.84375-1.972656 10.285156l12.925781 22.402344zm-12.863281-214.144532c18.105469 31.3125 12.890625 70.886719-12.714844 96.4375-31.28125 31.011719-81.742187 30.898438-112.886718-.246094-31.144532-31.144531-31.257813-81.605468-.246094-112.886718 17.589844-17.601563 42.375-26.007813 67.042968-22.730469 24.671876 3.273437 46.40625 17.851563 58.796876 39.433594zm122.71875 55.871094h-25.910156c-3.980469 0-7.355469 2.925781-7.921875 6.863281-1.765625 12.5-5.011719 24.746094-9.671875 36.480469-1.476563 3.695312-.011719 7.910156 3.433594 9.894531l22.34375 12.914063-16 27.695312-22.402344-12.917968c-3.4375-1.988282-7.816406-1.152344-10.277344 1.964843-2.257812 2.855469-4.609375 5.636719-7.058594 8.34375l-45.238281-45.246093c12.9375-15.203126 20.765625-34.09375 22.375-53.992188h96.328125zm-40.070312-85.238281c-3.445313 1.984375-4.910157 6.199219-3.433594 9.894531 4.660156 11.734375 7.90625 23.980469 9.671875 36.480469.566406 3.9375 3.941406 6.863281 7.921875 6.863281h25.910156v8h-96.335938c-.964843-11.367188-3.941406-22.476562-8.800781-32.800781l83.535157-48.070313 3.890624 6.71875zm-234.074219-105.035157 12.90625 22.351563c1.988281 3.449219 6.207031 4.90625 9.902343 3.425781 11.726563-4.667968 23.972657-7.914062 36.472657-9.671875 3.941406-.566406 6.867187-3.945312 6.863281-7.929687v-25.902344h32v25.902344c-.003906 3.984375 2.921875 7.363281 6.863281 7.929687 12.5 1.757813 24.746094 5.003907 36.472657 9.671875 3.695312 1.480469 7.914062.023438 9.902343-3.425781l12.90625-22.351563 27.710938 16-12.925781 22.402344c-1.988282 3.441406-1.144532 7.820313 1.972656 10.277344 9.917968 7.816406 18.878906 16.773438 26.699218 26.691406 2.457032 3.117188 6.835938 3.960938 10.277344 1.972656l22.402344-12.917968 4.109375 7.113281-83.542969 48.101563c-17.945312-25.839844-47.386718-41.285157-78.847656-41.367188-22.710938-.066406-44.695312 7.980469-62 22.6875l-45.199219-45.238281c2.703125-2.460938 5.480469-4.804688 8.335938-7.042969 3.125-2.460938 3.964843-6.84375 1.976562-10.285156l-12.929687-22.402344zm0 0"/><path d="m0 400h72v16h-72zm0 0"/><path d="m0 432h96v16h-96zm0 0"/><path d="m0 464h120v16h-120zm0 0"/><path d="m400 400h64v16h-64zm0 0"/><path d="m400 432h80v16h-80zm0 0"/><path d="m400 464h48v16h-48zm0 0"/><path d="m16 0h80v16h-80zm0 0"/><path d="m16 32h56v16h-56zm0 0"/><path d="m400 24h80v16h-80zm0 0"/><path d="m400 56h56v16h-56zm0 0"/><path d="m16 64h24v16h-24zm0 0"/></svg>