<?xml version="1.0" encoding="iso-8859-1"?>
<!-- Generator: Adobe Illustrator 19.0.0, SVG Export Plug-In . SVG Version: 6.00 Build 0)  -->
<svg version="1.1" id="Capa_1" xmlns="http://www.w3.org/2000/svg" xmlns:xlink="http://www.w3.org/1999/xlink" x="0px" y="0px"
	 viewBox="0 0 479.998 479.998" style="enable-background:new 0 0 479.998 479.998;" xml:space="preserve">
<g>
	<g>
		<path d="M444.005,56V40h-28.688l26.344-26.344L430.349,2.344l-26.344,26.344V0h-16v44.688l-8,8V24h-16v44.688l-19.744,19.744
			C269.448,19.744,153.118,24.709,84.43,99.522s-63.723,191.143,11.09,259.832c3.104,2.85,6.305,5.592,9.598,8.223l-66.768,66.768
			c-3.123,3.124-3.123,8.188,0,11.312l32,32c3.124,3.123,8.188,3.123,11.312,0l79.4-79.4c38.225,12.991,79.671,12.991,117.896,0
			l79.4,79.4c3.124,3.123,8.188,3.123,11.312,0l32-32c3.123-3.124,3.123-8.188,0-11.312l-66.768-66.768
			c79.285-63.261,92.275-178.818,29.014-258.103c-2.664-3.339-5.444-6.584-8.334-9.729L375.317,80h44.688V64h-28.688l8-8H444.005z
			 M76.005,460.688L55.317,440l62.808-62.808c0.68,0.448,1.4,0.8,2.08,1.264c2.933,1.904,5.923,3.723,8.968,5.456
			c0.952,0.544,1.896,1.12,2.856,1.648c3.52,1.928,7.128,3.704,10.784,5.4c0.656,0.304,1.28,0.672,1.936,0.968L76.005,460.688z
			 M384.693,440l-20.688,20.688l-68.752-68.752c0.656-0.296,1.28-0.664,1.936-0.968c3.656-1.696,7.264-3.48,10.784-5.4
			c0.96-0.528,1.904-1.096,2.856-1.648c3.045-1.739,6.035-3.557,8.968-5.456c0.688-0.44,1.416-0.816,2.088-1.272v0L384.693,440z
			 M333.622,347.708c-5.861,5.36-12.095,10.297-18.657,14.772c-0.8,0.536-1.552,1.048-2.336,1.6c-4,2.632-8,5.128-12.208,7.424
			l-0.488,0.28c-4.464,2.4-9.064,4.624-13.76,6.64c-0.712,0.304-1.44,0.592-2.16,0.888c-40.963,16.969-86.989,16.969-127.952,0
			c-0.72-0.296-1.448-0.576-2.16-0.888c-4.696-2.016-9.296-4.216-13.76-6.64l-0.488-0.28c-4.184-2.288-8.24-4.8-12.208-7.424
			c-0.8-0.52-1.6-1.04-2.336-1.6C79.39,331.205,52.039,279.393,52.005,224c-0.155-92.625,74.807-167.837,167.432-167.992
			c41.945-0.07,82.394,15.58,113.368,43.864l-16.96,16.96c-59.593-53.131-150.973-47.892-204.104,11.7s-47.892,150.973,11.7,204.104
			s150.973,47.892,204.104-11.7c49.007-54.967,48.861-137.99-0.34-192.784l16.96-16.96
			C406.566,179.415,401.845,285.307,333.622,347.708z M225.661,229.656l33.424-33.424c5.8,8.097,8.92,17.808,8.92,27.768
			c0.084,26.593-21.407,48.22-48,48.303c-26.594,0.084-48.22-21.407-48.303-48c-0.084-26.593,21.407-48.219,48-48.303
			c10.059-0.032,19.876,3.088,28.071,8.92l-33.424,33.424L225.661,229.656z M259.205,173.504
			c-28.006-21.767-68.354-16.71-90.121,11.296s-16.71,68.354,11.296,90.121c28.006,21.767,68.354,16.71,90.121-11.296
			c18.021-23.185,18.021-55.64,0-78.825l17.088-17.088c31.157,37.404,26.092,92.983-11.312,124.14
			c-37.404,31.157-92.983,26.092-124.14-11.312c-31.157-37.404-26.092-92.983,11.312-124.14c32.683-27.224,80.145-27.224,112.828,0
			L259.205,173.504z M140.531,156.416C103.042,200.153,108.106,266,151.844,303.49c43.737,37.49,109.584,32.425,147.074-11.312
			c33.482-39.061,33.481-96.701,0-135.762l16.96-16.96c46.947,53.195,41.883,134.376-11.312,181.323
			c-53.195,46.947-134.376,41.883-181.323-11.312c-46.947-53.195-41.883-134.376,11.312-181.323
			c48.566-42.862,121.445-42.862,170.011,0l-16.96,16.96C243.868,107.614,178.021,112.679,140.531,156.416z"/>
	</g>
</g>
<g>
</g>
<g>
</g>
<g>
</g>
<g>
</g>
<g>
</g>
<g>
</g>
<g>
</g>
<g>
</g>
<g>
</g>
<g>
</g>
<g>
</g>
<g>
</g>
<g>
</g>
<g>
</g>
<g>
</g>
</svg>
