<?xml version="1.0" encoding="iso-8859-1"?>
<!-- Generator: Adobe Illustrator 19.0.0, SVG Export Plug-In . SVG Version: 6.00 Build 0)  -->
<svg version="1.1" id="Capa_1" xmlns="http://www.w3.org/2000/svg" xmlns:xlink="http://www.w3.org/1999/xlink" x="0px" y="0px"
	 viewBox="0 0 480.006 480.006" style="enable-background:new 0 0 480.006 480.006;" xml:space="preserve">
<g>
	<g>
		<path d="M240.002,88.002c-83.947,0-152,68.053-152,152s68.053,152,152,152s152-68.053,152-152
			C391.909,156.093,323.91,88.094,240.002,88.002z M248.002,375.594v-15.592c0-4.418-3.582-8-8-8s-8,3.582-8,8v15.592
			c-68.693-4.109-123.483-58.899-127.592-127.592h15.592c4.418,0,8-3.582,8-8s-3.582-8-8-8H104.41
			c4.109-68.693,58.899-123.483,127.592-127.592v15.592c0,4.418,3.582,8,8,8s8-3.582,8-8V104.41
			c68.693,4.109,123.483,58.899,127.592,127.592h-15.592c-4.418,0-8,3.582-8,8s3.582,8,8,8h15.592
			C371.485,316.695,316.695,371.485,248.002,375.594z"/>
	</g>
</g>
<g>
	<g>
		<path d="M338.53,264.41l-43.464-14.488c5.565-30.423-14.586-59.598-45.009-65.163c-30.423-5.565-59.598,14.586-65.163,45.009
			c-2.811,15.369,0.925,31.213,10.308,43.706l-8.872,8.872c-3.178,3.069-3.266,8.134-0.196,11.312
			c3.069,3.178,8.134,3.266,11.312,0.196c0.067-0.064,0.132-0.13,0.196-0.196l8.888-8.856c24.605,18.526,59.57,13.599,78.096-11.006
			c2.051-2.724,3.848-5.63,5.368-8.682l43.48,14.496c4.197,1.396,8.732-0.875,10.128-5.072
			C344.998,270.34,342.727,265.806,338.53,264.41z M240.002,280.002c-7.838-0.002-15.5-2.32-22.024-6.664l17.936-17.936
			c5.144,1.485,10.689,0.175,14.624-3.456l23.944,8C267.396,272.311,254.252,279.956,240.002,280.002z M279.522,244.746
			l-23.848-7.944c-1.78-8.655-10.24-14.229-18.895-12.449c-7.43,1.528-12.766,8.063-12.777,15.649
			c0.019,1.383,0.221,2.758,0.6,4.088l-17.936,17.936c-12.209-18.411-7.182-43.234,11.229-55.443s43.234-7.182,55.443,11.229
			c4.362,6.577,6.68,14.297,6.664,22.189C279.939,241.592,279.779,243.176,279.522,244.746z"/>
	</g>
</g>
<g>
	<g>
		<path d="M440.002,400.002H418.81c88.401-98.717,80.038-250.405-18.678-338.806c-44.02-39.42-101.039-61.21-160.13-61.194
			C107.453,0.001,0.001,107.452,0,240c0,61.628,23.707,120.895,66.21,165.521c3.049,3.199,8.113,3.321,11.312,0.272
			c3.199-3.049,3.321-8.113,0.272-11.312C-7.539,304.911-4.104,163.124,85.467,77.791s231.358-81.897,316.691,7.673
			c80.126,84.105,82.663,215.506,5.844,302.641v-20.104c0-4.418-3.582-8-8-8s-8,3.582-8,8v40c0,4.418,3.582,8,8,8h40
			c4.418,0,8-3.582,8-8S444.42,400.002,440.002,400.002z"/>
	</g>
</g>
<g>
	<g>
		<path d="M155.578,439.202c2.725-1.362,4.441-4.153,4.424-7.2v-24c0-4.418-3.582-8-8-8h-32c-4.418,0-8,3.582-8,8v16
			c0,4.418,3.582,8,8,8s8-3.582,8-8v-8h16v11.056l-27.576,13.784c-2.712,1.355-4.425,4.128-4.424,7.16v24c0,4.418,3.582,8,8,8h32
			c4.418,0,8-3.582,8-8s-3.582-8-8-8h-24v-11.056L155.578,439.202z"/>
	</g>
</g>
<g>
	<g>
		<path d="M232.002,440.002h-8v-24c0-4.418-3.582-8-8-8s-8,3.582-8,8v24h-16v-32c0-4.418-3.582-8-8-8s-8,3.582-8,8v40
			c0,4.418,3.582,8,8,8h24v16c0,4.418,3.582,8,8,8s8-3.582,8-8v-16h8c4.418,0,8-3.582,8-8S236.42,440.002,232.002,440.002z"/>
	</g>
</g>
<g>
	<g>
		<path d="M282.802,400.514c-4.14-1.546-8.75,0.556-10.296,4.696v-0.016l-24,64c-1.552,4.137,0.543,8.748,4.679,10.301
			c0.003,0.001,0.006,0.002,0.009,0.003c0.9,0.33,1.85,0.501,2.808,0.504c3.337,0.002,6.325-2.067,7.496-5.192l24-64
			C289.044,406.67,286.941,402.06,282.802,400.514z"/>
	</g>
</g>
<g>
	<g>
		<path d="M352.002,400.002h-40c-4.418,0-8,3.582-8,8v16c0,4.418,3.582,8,8,8s8-3.582,8-8v-8h24v5.6l-30.656,45.96
			c-2.452,3.676-1.46,8.644,2.216,11.096s8.644,1.46,11.096-2.216l32-48c0.874-1.316,1.341-2.86,1.344-4.44v-16
			C360.002,403.584,356.42,400.002,352.002,400.002z"/>
	</g>
</g>
<g>
</g>
<g>
</g>
<g>
</g>
<g>
</g>
<g>
</g>
<g>
</g>
<g>
</g>
<g>
</g>
<g>
</g>
<g>
</g>
<g>
</g>
<g>
</g>
<g>
</g>
<g>
</g>
<g>
</g>
</svg>
