<?xml version="1.0" encoding="iso-8859-1"?>
<!-- Generator: Adobe Illustrator 19.0.0, SVG Export Plug-In . SVG Version: 6.00 Build 0)  -->
<svg version="1.1" id="Capa_1" xmlns="http://www.w3.org/2000/svg" xmlns:xlink="http://www.w3.org/1999/xlink" x="0px" y="0px"
	 viewBox="0 0 512.001 512.001" style="enable-background:new 0 0 512.001 512.001;" xml:space="preserve">
<g>
	<g>
		<path d="M502,319.923h-92.727c-2.571,0-4.909,0.979-6.68,2.574l-14.66-11.295c-5.113-3.94-9.178-9.03-11.95-14.748
			c4.315-8.831,7.873-18.003,10.613-27.39l46.072-7.364c4.851-0.775,8.421-4.961,8.421-9.874v-62.56c0-4.913-3.57-9.099-8.421-9.874
			l-46.069-7.364c-3.505-12.034-8.303-23.625-14.322-34.6l27.362-37.774c2.882-3.979,2.447-9.463-1.027-12.938L354.375,42.48
			c-3.474-3.475-8.958-3.91-12.937-1.028l-37.774,27.362c-10.974-6.019-22.565-10.816-34.6-14.321l-7.364-46.07
			C260.924,3.57,256.739,0,251.826,0h-62.56c-4.913,0-9.099,3.57-9.874,8.422l-7.364,46.069
			c-12.035,3.505-23.626,8.303-34.601,14.321L99.652,41.45c-3.978-2.882-9.462-2.447-12.937,1.028L42.477,86.714
			c-3.474,3.475-3.91,8.958-1.027,12.938l27.362,37.774c-6.018,10.974-10.816,22.566-14.321,34.6l-46.07,7.364
			C3.57,180.165,0,184.351,0,189.265v62.56c0,4.914,3.57,9.099,8.421,9.874l46.07,7.364c3.505,12.035,8.303,23.626,14.321,34.601
			l-27.362,37.774c-2.882,3.979-2.447,9.463,1.027,12.938l44.237,44.236c3.475,3.474,8.959,3.909,12.937,1.027l37.774-27.362
			c10.975,6.019,22.566,10.817,34.601,14.322l5.628,35.21c-0.623,2.572-0.962,5.254-0.962,8.015c0,9.383,3.814,17.893,9.974,24.059
			c-6.159,6.166-9.974,14.676-9.974,24.059c0,18.78,15.279,34.059,34.059,34.059h140.187c13.278,0,26.424-4.41,37.017-12.417
			l11.677-8.827c1.154,4.247,5.027,7.375,9.64,7.375H502c5.523,0,10-4.477,10-10V329.923C512,324.4,507.523,319.923,502,319.923z
			 M185.566,358.805c-0.121,0.133-0.235,0.272-0.354,0.407c-0.234,0.265-0.469,0.53-0.695,0.802
			c-0.138,0.167-0.269,0.339-0.404,0.509c-0.197,0.248-0.397,0.494-0.588,0.748c-0.14,0.186-0.272,0.377-0.408,0.566
			c-0.177,0.245-0.355,0.489-0.525,0.739c-0.134,0.196-0.261,0.397-0.39,0.596c-0.163,0.251-0.327,0.5-0.484,0.755
			c-0.126,0.204-0.244,0.413-0.366,0.619c-0.15,0.257-0.301,0.513-0.445,0.774c-0.117,0.213-0.228,0.429-0.341,0.645
			c-0.137,0.262-0.274,0.523-0.404,0.788c-0.108,0.22-0.211,0.444-0.314,0.667c-0.083,0.179-0.172,0.355-0.252,0.536
			c-13.238-3.662-25.889-9.085-37.657-16.145c-3.436-2.06-7.768-1.873-11.011,0.477l-36.101,26.151l-32.176-32.175l26.151-36.102
			c2.35-3.244,2.537-7.576,0.477-11.011c-7.717-12.863-13.478-26.781-17.122-41.366c-0.971-3.886-4.167-6.818-8.124-7.45L20,243.296
			v-45.503l44.033-7.039c3.956-0.632,7.152-3.564,8.123-7.45c3.645-14.585,9.405-28.503,17.122-41.366
			c2.061-3.435,1.873-7.767-0.477-11.011L62.651,94.826L94.826,62.65l36.101,26.151c3.243,2.349,7.575,2.537,11.01,0.477
			c12.864-7.717,26.782-13.478,41.367-17.122c3.886-0.971,6.818-4.168,7.45-8.123L197.794,20h45.503l7.039,44.033
			c0.632,3.956,3.564,7.152,7.45,8.123c14.585,3.645,28.503,9.405,41.366,17.122c3.435,2.061,7.767,1.873,11.011-0.477
			l36.102-26.151l32.175,32.175l-26.151,36.102c-2.35,3.244-2.537,7.576-0.477,11.011c7.717,12.864,13.478,26.781,17.123,41.366
			c0.971,3.886,4.168,6.818,8.123,7.45l44.032,7.039v45.503l-44.032,7.038c-2.011,0.321-3.825,1.236-5.251,2.569v-34.984
			c0-10.777-5.657-20.251-14.152-25.628c-5.504-26.84-18.631-51.258-38.114-70.742c-54.586-54.587-143.404-54.587-197.99,0
			c-21.756,21.756-35.477,49.324-39.68,79.725c-4.065,29.404,1.438,59.902,15.495,85.876c1.81,3.344,5.25,5.242,8.803,5.242
			c1.607,0,3.238-0.389,4.751-1.207c4.857-2.628,6.664-8.697,4.035-13.554c-25.059-46.302-16.531-104.669,20.738-141.939
			c46.787-46.789,122.917-46.789,169.705,0c14.647,14.647,25.099,32.544,30.634,52.234c-0.202,0.023-0.403,0.051-0.604,0.077
			c-0.141,0.018-0.282,0.034-0.423,0.054c-6.297,0.855-12.207,2.934-17.487,5.992c-4.578-16.763-13.458-32.179-25.878-44.599
			C272.651,130.458,247.401,120,220.545,120c-26.857,0-52.105,10.458-71.096,29.449c-39.202,39.202-39.202,102.989,0,142.192
			c9.707,9.707,21.073,17.2,33.553,22.202c-0.105,0.148-0.196,0.306-0.299,0.456c-0.282,0.408-0.553,0.824-0.817,1.245
			c-0.192,0.308-0.38,0.618-0.562,0.931c-0.268,0.46-0.526,0.926-0.773,1.399c-0.117,0.225-0.235,0.449-0.347,0.677
			c-0.314,0.635-0.611,1.28-0.886,1.937c-0.064,0.154-0.122,0.312-0.185,0.467c-0.242,0.603-0.466,1.214-0.674,1.834
			c-0.049,0.147-0.102,0.292-0.149,0.44c-0.233,0.726-0.44,1.464-0.624,2.21c-0.037,0.15-0.07,0.3-0.104,0.451
			c-0.164,0.706-0.308,1.419-0.427,2.141c-0.014,0.082-0.031,0.162-0.044,0.245c-0.122,0.776-0.212,1.561-0.28,2.353
			c-0.015,0.177-0.028,0.354-0.041,0.532c-0.057,0.803-0.096,1.61-0.096,2.427c0,9.383,3.814,17.893,9.974,24.059
			C186.292,358.024,185.924,358.411,185.566,358.805z M163.592,277.5c-31.404-31.405-31.404-82.504,0-113.908
			c31.405-31.404,82.503-31.404,113.907,0c12.708,12.708,20.784,29.334,22.965,47.122c-4.424,7.264-6.975,15.788-6.975,24.897
			v19.036c-3.971,8.504-9.331,16.191-15.991,22.852c-11.335,11.336-25.585,18.935-41.248,22.031h-25.498
			c-1.465,0-2.906,0.104-4.323,0.284C190.128,296.933,175.339,289.246,163.592,277.5z M293.489,289.744v9.785h-10.714
			c3.09-2.44,6.051-5.073,8.867-7.889C292.266,291.016,292.883,290.383,293.489,289.744z M399.272,465.956l-23.377,17.673
			c-7.141,5.398-16.004,8.371-24.956,8.371H210.753c-7.753,0-14.059-6.307-14.059-14.059c0-7.74,6.286-14.036,14.021-14.057h22.856
			c5.523,0,10-4.477,10-10s-4.477-10-10-10h-22.779c-0.013,0-0.026-0.002-0.039-0.002c-7.753,0-14.059-6.307-14.059-14.059
			c0-1.938,0.394-3.785,1.106-5.466c0.001-0.002,0.002-0.004,0.003-0.006c0.173-0.407,0.365-0.803,0.574-1.19
			c0.017-0.032,0.036-0.063,0.053-0.095c0.206-0.375,0.427-0.741,0.666-1.094c0.001-0.002,0.003-0.005,0.005-0.007
			c1.763-2.605,4.376-4.589,7.438-5.554c0.051-0.016,0.103-0.029,0.155-0.044c0.349-0.106,0.704-0.196,1.064-0.274
			c0.119-0.026,0.239-0.05,0.359-0.072c0.312-0.059,0.628-0.106,0.947-0.145c0.125-0.015,0.249-0.033,0.374-0.045
			c0.433-0.04,0.871-0.067,1.315-0.067h22.818c5.523,0,10-4.477,10-10s-4.477-10-10-10h-22.818c-7.752,0-14.059-6.307-14.059-14.059
			s6.307-14.059,14.059-14.059c0.013,0,0.026-0.002,0.039-0.002h22.779c5.523,0,10-4.477,10-10s-4.477-10-10-10h-22.856
			c-7.734-0.021-14.021-6.318-14.021-14.057c0-0.456,0.026-0.906,0.068-1.352c0.014-0.15,0.04-0.296,0.059-0.444
			c0.038-0.294,0.078-0.588,0.134-0.876c0.032-0.168,0.073-0.332,0.112-0.498c0.062-0.267,0.128-0.532,0.204-0.793
			c0.047-0.161,0.099-0.32,0.152-0.479c0.089-0.266,0.185-0.529,0.289-0.788c0.056-0.14,0.113-0.279,0.173-0.416
			c0.126-0.285,0.261-0.564,0.405-0.839c0.053-0.102,0.103-0.204,0.159-0.305c0.19-0.342,0.392-0.677,0.609-1.001
			c0.018-0.027,0.033-0.054,0.051-0.081c0.999-1.473,2.27-2.746,3.74-3.749c0.047-0.032,0.095-0.062,0.142-0.093
			c0.308-0.205,0.624-0.396,0.948-0.577c0.087-0.048,0.175-0.095,0.264-0.142c0.284-0.15,0.576-0.289,0.871-0.42
			c0.127-0.056,0.254-0.113,0.383-0.165c0.256-0.105,0.519-0.197,0.782-0.287c0.17-0.057,0.338-0.117,0.511-0.168
			c0.221-0.066,0.447-0.118,0.672-0.173c0.216-0.052,0.43-0.11,0.65-0.152c0.868-0.169,1.763-0.263,2.68-0.263h26.509h66.227
			c5.523,0,10-4.477,10-10v-52.677V235.61c0-6.241,2.054-12.011,5.519-16.672c0.137-0.185,0.281-0.364,0.423-0.545
			c0.284-0.364,0.577-0.72,0.879-1.069c0.176-0.203,0.35-0.408,0.531-0.605c0.155-0.169,0.315-0.332,0.474-0.497
			c0.205-0.213,0.41-0.424,0.621-0.629c0.139-0.136,0.28-0.269,0.422-0.402c0.268-0.251,0.541-0.497,0.818-0.736
			c0.093-0.08,0.184-0.162,0.278-0.241c3.739-3.145,8.25-5.279,13.063-6.157c0.023-0.004,0.046-0.008,0.068-0.012
			c0.477-0.086,0.958-0.156,1.441-0.217c0.084-0.01,0.167-0.022,0.251-0.032c0.432-0.051,0.866-0.087,1.301-0.118
			c0.11-0.008,0.219-0.019,0.329-0.025c0.527-0.03,1.057-0.048,1.588-0.048c5.687,0,10.313,4.627,10.313,10.314v60.499
			c0,1.093,0.039,2.183,0.096,3.27c0.013,0.233,0.031,0.465,0.046,0.698c0.062,0.964,0.147,1.925,0.254,2.883
			c0.012,0.103,0.022,0.206,0.034,0.309c0.558,4.762,1.661,9.444,3.325,13.984c0.117,0.319,0.268,0.616,0.415,0.917
			c4.019,10.383,10.794,19.665,19.749,26.564l23.547,18.143V465.956z M492,478.131h-26.364v-77.844c0-5.523-4.477-10-10-10
			s-10,4.477-10,10v77.844h-26.363v-7.198V340.268v-0.345H492V478.131z"/>
	</g>
</g>
<g>
	<g>
		<path d="M465.44,362.74c-0.13-0.63-0.32-1.26-0.57-1.87c-0.25-0.6-0.56-1.18-0.92-1.72c-0.36-0.55-0.78-1.06-1.24-1.52
			c-0.46-0.46-0.98-0.88-1.52-1.25c-0.55-0.36-1.13-0.67-1.73-0.92c-0.6-0.25-1.23-0.44-1.87-0.57c-1.29-0.26-2.62-0.26-3.91,0
			c-0.64,0.13-1.27,0.32-1.87,0.57c-0.6,0.25-1.18,0.56-1.73,0.92c-0.54,0.37-1.05,0.79-1.52,1.25c-0.461,0.46-0.87,0.97-1.24,1.52
			c-0.36,0.54-0.67,1.12-0.92,1.72c-0.25,0.61-0.44,1.24-0.57,1.87c-0.13,0.65-0.19,1.31-0.19,1.96c0,0.65,0.06,1.31,0.19,1.95
			s0.32,1.27,0.57,1.87c0.25,0.61,0.56,1.19,0.92,1.73c0.37,0.55,0.78,1.06,1.24,1.52c0.47,0.46,0.98,0.88,1.52,1.24
			c0.55,0.36,1.13,0.67,1.73,0.92c0.6,0.25,1.23,0.44,1.87,0.57c0.65,0.13,1.3,0.2,1.96,0.2c0.65,0,1.31-0.07,1.95-0.2
			s1.27-0.32,1.87-0.57c0.6-0.25,1.18-0.56,1.73-0.92c0.54-0.36,1.06-0.78,1.52-1.24c0.46-0.46,0.88-0.97,1.24-1.52
			c0.36-0.54,0.67-1.12,0.92-1.73c0.25-0.6,0.44-1.23,0.57-1.87s0.2-1.3,0.2-1.95C465.641,364.05,465.57,363.39,465.44,362.74z"/>
	</g>
</g>
<g>
	<g>
		<path d="M134.747,304.44c-1.865-1.922-4.424-3.017-7.103-3.038c-2.711-0.047-5.254,1.034-7.149,2.928
			c-3.891,3.891-3.88,10.223-0.009,14.134c1.957,1.978,4.537,2.969,7.119,2.969c2.524,0,5.05-0.949,6.993-2.853
			C138.529,314.73,138.578,308.391,134.747,304.44z"/>
	</g>
</g>
<g>
	<g>
		<path d="M220.545,156.731c-35.187,0-63.814,28.627-63.814,63.814s28.627,63.813,63.814,63.813
			c35.187,0,63.814-28.626,63.814-63.813S255.732,156.731,220.545,156.731z M220.545,264.358c-24.159,0-43.814-19.655-43.814-43.813
			c0-24.159,19.655-43.814,43.814-43.814s43.814,19.655,43.814,43.814C264.359,244.704,244.704,264.358,220.545,264.358z"/>
	</g>
</g>
<g>
	<g>
		<path d="M234.685,220.545l5.791-5.791c3.907-3.905,3.907-10.237,0.002-14.143c-3.905-3.904-10.237-3.904-14.143,0l-5.791,5.791
			l-5.791-5.791c-3.905-3.904-10.237-3.904-14.143,0c-3.905,3.905-3.905,10.237,0,14.143l5.791,5.791l-5.791,5.791
			c-3.905,3.905-3.905,10.237,0,14.143c1.953,1.953,4.512,2.929,7.071,2.929c2.559,0,5.119-0.976,7.071-2.929l5.791-5.791
			l5.791,5.791c1.953,1.953,4.512,2.929,7.071,2.929c2.559,0,5.119-0.976,7.071-2.929c3.905-3.905,3.905-10.237,0-14.143
			L234.685,220.545z"/>
	</g>
</g>
<g>
</g>
<g>
</g>
<g>
</g>
<g>
</g>
<g>
</g>
<g>
</g>
<g>
</g>
<g>
</g>
<g>
</g>
<g>
</g>
<g>
</g>
<g>
</g>
<g>
</g>
<g>
</g>
<g>
</g>
</svg>
