<?xml version="1.0" encoding="iso-8859-1"?>
<!-- Generator: Adobe Illustrator 19.0.0, SVG Export Plug-In . SVG Version: 6.00 Build 0)  -->
<svg version="1.1" id="Capa_1" xmlns="http://www.w3.org/2000/svg" xmlns:xlink="http://www.w3.org/1999/xlink" x="0px" y="0px"
	 viewBox="0 0 480 480" style="enable-background:new 0 0 480 480;" xml:space="preserve">
<g>
	<g>
		<path d="M432.437,331.493c-1.071-1.254-2.239-2.422-3.493-3.493c13.255-11.326,14.819-31.252,3.493-44.507
			c-1.071-1.254-2.239-2.422-3.493-3.493c13.33-11.489,14.823-31.609,3.334-44.939c-6.085-7.06-14.957-11.102-24.278-11.061H264
			v-77.2c-0.043-34.441-16.675-66.752-44.68-86.8c-7.759-5.549-18.547-3.758-24.096,4c-2.092,2.924-3.218,6.428-3.224,10.024v128
			c0.019,16.617-7.365,32.378-20.144,43l-12.048,10.04c-0.431-3.996-3.789-7.034-7.808-7.064h-24c0-4.418-3.582-8-8-8H8
			c-4.418,0-8,3.582-8,8v224c0,4.418,3.582,8,8,8h112c4.418,0,8-3.582,8-8h24c3.721-0.034,6.913-2.665,7.656-6.312l25.336,5.064
			c4.133,0.827,8.337,1.245,12.552,1.248h117.24c9.935-0.012,19.732-2.323,28.624-6.752L410.4,431.76
			c17.496-1.188,30.716-16.335,29.528-33.83c-0.576-8.486-4.533-16.386-10.984-21.93
			C442.199,364.674,443.763,344.748,432.437,331.493z M112,464H16V256h96V464z M144,456h-16V264h16V456z M336.248,450.936
			c-6.667,3.323-14.014,5.057-21.464,5.064h-117.24c-3.161,0-6.315-0.31-9.416-0.928L160,449.44V275.744l22.104-18.416
			c16.432-13.659,25.925-33.928,25.896-55.296v-128c0-0.703,0.569-1.272,1.272-1.272c0.267,0,0.528,0.084,0.744,0.24
			c23.813,17.043,37.953,44.517,37.984,73.8V232c0.002,3.179,1.886,6.056,4.8,7.328c-8.301,13.23-5.638,30.548,6.256,40.672
			c-13.255,11.326-14.819,31.252-3.493,44.507c1.071,1.254,2.239,2.422,3.493,3.493c-13.255,11.326-14.819,31.252-3.493,44.507
			c1.071,1.254,2.239,2.422,3.493,3.493c-13.33,11.489-14.823,31.609-3.334,44.939c6.085,7.06,14.957,11.102,24.278,11.061h94.112
			L336.248,450.936z M408,416H280c-8.837,0-16-7.163-16-16s7.163-16,16-16h128c8.837,0,16,7.163,16,16S416.837,416,408,416z
			 M408,368H280c-8.837,0-16-7.163-16-16s7.163-16,16-16h128c8.837,0,16,7.163,16,16S416.837,368,408,368z M408,320H280
			c-8.837,0-16-7.163-16-16s7.163-16,16-16h128c8.837,0,16,7.163,16,16S416.837,320,408,320z M408,272H280c-8.837,0-16-7.163-16-16
			s7.163-16,16-16h8h120c8.837,0,16,7.163,16,16S416.837,272,408,272z"/>
	</g>
</g>
<g>
	<g>
		<path d="M472,32c-13.255,0-24-10.745-24-24c0-4.418-3.582-8-8-8s-8,3.582-8,8c0,13.255-10.745,24-24,24c-4.418,0-8,3.582-8,8
			s3.582,8,8,8c13.255,0,24,10.745,24,24c0,4.418,3.582,8,8,8s8-3.582,8-8c0-13.255,10.745-24,24-24c4.418,0,8-3.582,8-8
			S476.418,32,472,32z M440,48c-2.279-3.028-4.972-5.721-8-8c3.028-2.279,5.721-4.972,8-8c2.279,3.028,4.972,5.721,8,8
			C444.972,42.279,442.279,44.972,440,48z"/>
	</g>
</g>
<g>
	<g>
		<path d="M368,120c-13.255,0-24-10.745-24-24c0-4.418-3.582-8-8-8s-8,3.582-8,8c0,13.255-10.745,24-24,24c-4.418,0-8,3.582-8,8
			s3.582,8,8,8c13.255,0,24,10.745,24,24c0,4.418,3.582,8,8,8s8-3.582,8-8c0-13.255,10.745-24,24-24c4.418,0,8-3.582,8-8
			S372.418,120,368,120z M336,136c-2.279-3.028-4.972-5.721-8-8c3.028-2.279,5.721-4.972,8-8c2.279,3.028,4.972,5.721,8,8
			C340.972,130.279,338.279,132.972,336,136z"/>
	</g>
</g>
<g>
	<g>
		<rect x="112" y="16" width="16" height="16"/>
	</g>
</g>
<g>
	<g>
		<rect x="80" y="16" width="16" height="16"/>
	</g>
</g>
<g>
	<g>
		<rect x="48" y="16" width="16" height="16"/>
	</g>
</g>
<g>
	<g>
		<path d="M72,104c-13.255,0-24-10.745-24-24c0-4.418-3.582-8-8-8s-8,3.582-8,8c0,13.255-10.745,24-24,24c-4.418,0-8,3.582-8,8
			s3.582,8,8,8c13.255,0,24,10.745,24,24c0,4.418,3.582,8,8,8s8-3.582,8-8c0-13.255,10.745-24,24-24c4.418,0,8-3.582,8-8
			S76.418,104,72,104z M40,120c-2.279-3.028-4.972-5.721-8-8c3.028-2.279,5.721-4.972,8-8c2.279,3.028,4.972,5.721,8,8
			C44.972,114.279,42.279,116.972,40,120z"/>
	</g>
</g>
<g>
	<g>
		<rect x="432" y="192" width="16" height="16"/>
	</g>
</g>
<g>
	<g>
		<rect x="464" y="192" width="16" height="16"/>
	</g>
</g>
<g>
	<g>
		<rect x="400" y="192" width="16" height="16"/>
	</g>
</g>
<g>
	<g>
		<rect x="336" width="16" height="16"/>
	</g>
</g>
<g>
	<g>
		<rect x="304" width="16" height="16"/>
	</g>
</g>
<g>
	<g>
		<rect x="272" width="16" height="16"/>
	</g>
</g>
<g>
	<g>
		<rect x="72" y="168" width="16" height="16"/>
	</g>
</g>
<g>
	<g>
		<rect x="136" y="168" width="16" height="16"/>
	</g>
</g>
<g>
	<g>
		<rect x="104" y="168" width="16" height="16"/>
	</g>
</g>
<g>
</g>
<g>
</g>
<g>
</g>
<g>
</g>
<g>
</g>
<g>
</g>
<g>
</g>
<g>
</g>
<g>
</g>
<g>
</g>
<g>
</g>
<g>
</g>
<g>
</g>
<g>
</g>
<g>
</g>
</svg>
